<?xml version="1.0" encoding="utf-8" standalone="no"?>
<!DOCTYPE svg PUBLIC "-//W3C//DTD SVG 1.1//EN"
  "http://www.w3.org/Graphics/SVG/1.1/DTD/svg11.dtd">
<!-- Created with matplotlib (https://matplotlib.org/) -->
<svg height="576pt" version="1.1" viewBox="0 0 864 576" width="864pt" xmlns="http://www.w3.org/2000/svg" xmlns:xlink="http://www.w3.org/1999/xlink">
 <metadata>
  <rdf:RDF xmlns:cc="http://creativecommons.org/ns#" xmlns:dc="http://purl.org/dc/elements/1.1/" xmlns:rdf="http://www.w3.org/1999/02/22-rdf-syntax-ns#">
   <cc:Work>
    <dc:type rdf:resource="http://purl.org/dc/dcmitype/StillImage"/>
    <dc:date>2020-10-21T23:40:07.750207</dc:date>
    <dc:format>image/svg+xml</dc:format>
    <dc:creator>
     <cc:Agent>
      <dc:title>Matplotlib v3.3.2, https://matplotlib.org/</dc:title>
     </cc:Agent>
    </dc:creator>
   </cc:Work>
  </rdf:RDF>
 </metadata>
 <defs>
  <style type="text/css">*{stroke-linecap:butt;stroke-linejoin:round;}</style>
 </defs>
 <g id="figure_1">
  <g id="patch_1">
   <path d="M 0 576 
L 864 576 
L 864 0 
L 0 0 
z
" style="fill:none;"/>
  </g>
  <g id="axes_1">
   <g id="patch_2">
    <path d="M 108 504 
L 777.6 504 
L 777.6 69.12 
L 108 69.12 
z
" style="fill:#ffffff;"/>
   </g>
   <g id="matplotlib.axis_1">
    <g id="xtick_1">
     <g id="line2d_1">
      <defs>
       <path d="M 0 0 
L 0 3.5 
" id="m2a6ce578ae" style="stroke:#000000;stroke-width:0.8;"/>
      </defs>
      <g>
       <use style="stroke:#000000;stroke-width:0.8;" x="138.436364" xlink:href="#m2a6ce578ae" y="504"/>
      </g>
     </g>
     <g id="text_1">
      <!-- 0.0 -->
      <g transform="translate(130.484801 518.598438)scale(0.1 -0.1)">
       <defs>
        <path d="M 31.78125 66.40625 
Q 24.171875 66.40625 20.328125 58.90625 
Q 16.5 51.421875 16.5 36.375 
Q 16.5 21.390625 20.328125 13.890625 
Q 24.171875 6.390625 31.78125 6.390625 
Q 39.453125 6.390625 43.28125 13.890625 
Q 47.125 21.390625 47.125 36.375 
Q 47.125 51.421875 43.28125 58.90625 
Q 39.453125 66.40625 31.78125 66.40625 
z
M 31.78125 74.21875 
Q 44.046875 74.21875 50.515625 64.515625 
Q 56.984375 54.828125 56.984375 36.375 
Q 56.984375 17.96875 50.515625 8.265625 
Q 44.046875 -1.421875 31.78125 -1.421875 
Q 19.53125 -1.421875 13.0625 8.265625 
Q 6.59375 17.96875 6.59375 36.375 
Q 6.59375 54.828125 13.0625 64.515625 
Q 19.53125 74.21875 31.78125 74.21875 
z
" id="DejaVuSans-48"/>
        <path d="M 10.6875 12.40625 
L 21 12.40625 
L 21 0 
L 10.6875 0 
z
" id="DejaVuSans-46"/>
       </defs>
       <use xlink:href="#DejaVuSans-48"/>
       <use x="63.623047" xlink:href="#DejaVuSans-46"/>
       <use x="95.410156" xlink:href="#DejaVuSans-48"/>
      </g>
     </g>
    </g>
    <g id="xtick_2">
     <g id="line2d_2">
      <g>
       <use style="stroke:#000000;stroke-width:0.8;" x="260.181818" xlink:href="#m2a6ce578ae" y="504"/>
      </g>
     </g>
     <g id="text_2">
      <!-- 0.2 -->
      <g transform="translate(252.230256 518.598438)scale(0.1 -0.1)">
       <defs>
        <path d="M 19.1875 8.296875 
L 53.609375 8.296875 
L 53.609375 0 
L 7.328125 0 
L 7.328125 8.296875 
Q 12.9375 14.109375 22.625 23.890625 
Q 32.328125 33.6875 34.8125 36.53125 
Q 39.546875 41.84375 41.421875 45.53125 
Q 43.3125 49.21875 43.3125 52.78125 
Q 43.3125 58.59375 39.234375 62.25 
Q 35.15625 65.921875 28.609375 65.921875 
Q 23.96875 65.921875 18.8125 64.3125 
Q 13.671875 62.703125 7.8125 59.421875 
L 7.8125 69.390625 
Q 13.765625 71.78125 18.9375 73 
Q 24.125 74.21875 28.421875 74.21875 
Q 39.75 74.21875 46.484375 68.546875 
Q 53.21875 62.890625 53.21875 53.421875 
Q 53.21875 48.921875 51.53125 44.890625 
Q 49.859375 40.875 45.40625 35.40625 
Q 44.1875 33.984375 37.640625 27.21875 
Q 31.109375 20.453125 19.1875 8.296875 
z
" id="DejaVuSans-50"/>
       </defs>
       <use xlink:href="#DejaVuSans-48"/>
       <use x="63.623047" xlink:href="#DejaVuSans-46"/>
       <use x="95.410156" xlink:href="#DejaVuSans-50"/>
      </g>
     </g>
    </g>
    <g id="xtick_3">
     <g id="line2d_3">
      <g>
       <use style="stroke:#000000;stroke-width:0.8;" x="381.927273" xlink:href="#m2a6ce578ae" y="504"/>
      </g>
     </g>
     <g id="text_3">
      <!-- 0.4 -->
      <g transform="translate(373.97571 518.598438)scale(0.1 -0.1)">
       <defs>
        <path d="M 37.796875 64.3125 
L 12.890625 25.390625 
L 37.796875 25.390625 
z
M 35.203125 72.90625 
L 47.609375 72.90625 
L 47.609375 25.390625 
L 58.015625 25.390625 
L 58.015625 17.1875 
L 47.609375 17.1875 
L 47.609375 0 
L 37.796875 0 
L 37.796875 17.1875 
L 4.890625 17.1875 
L 4.890625 26.703125 
z
" id="DejaVuSans-52"/>
       </defs>
       <use xlink:href="#DejaVuSans-48"/>
       <use x="63.623047" xlink:href="#DejaVuSans-46"/>
       <use x="95.410156" xlink:href="#DejaVuSans-52"/>
      </g>
     </g>
    </g>
    <g id="xtick_4">
     <g id="line2d_4">
      <g>
       <use style="stroke:#000000;stroke-width:0.8;" x="503.672727" xlink:href="#m2a6ce578ae" y="504"/>
      </g>
     </g>
     <g id="text_4">
      <!-- 0.6 -->
      <g transform="translate(495.721165 518.598438)scale(0.1 -0.1)">
       <defs>
        <path d="M 33.015625 40.375 
Q 26.375 40.375 22.484375 35.828125 
Q 18.609375 31.296875 18.609375 23.390625 
Q 18.609375 15.53125 22.484375 10.953125 
Q 26.375 6.390625 33.015625 6.390625 
Q 39.65625 6.390625 43.53125 10.953125 
Q 47.40625 15.53125 47.40625 23.390625 
Q 47.40625 31.296875 43.53125 35.828125 
Q 39.65625 40.375 33.015625 40.375 
z
M 52.59375 71.296875 
L 52.59375 62.3125 
Q 48.875 64.0625 45.09375 64.984375 
Q 41.3125 65.921875 37.59375 65.921875 
Q 27.828125 65.921875 22.671875 59.328125 
Q 17.53125 52.734375 16.796875 39.40625 
Q 19.671875 43.65625 24.015625 45.921875 
Q 28.375 48.1875 33.59375 48.1875 
Q 44.578125 48.1875 50.953125 41.515625 
Q 57.328125 34.859375 57.328125 23.390625 
Q 57.328125 12.15625 50.6875 5.359375 
Q 44.046875 -1.421875 33.015625 -1.421875 
Q 20.359375 -1.421875 13.671875 8.265625 
Q 6.984375 17.96875 6.984375 36.375 
Q 6.984375 53.65625 15.1875 63.9375 
Q 23.390625 74.21875 37.203125 74.21875 
Q 40.921875 74.21875 44.703125 73.484375 
Q 48.484375 72.75 52.59375 71.296875 
z
" id="DejaVuSans-54"/>
       </defs>
       <use xlink:href="#DejaVuSans-48"/>
       <use x="63.623047" xlink:href="#DejaVuSans-46"/>
       <use x="95.410156" xlink:href="#DejaVuSans-54"/>
      </g>
     </g>
    </g>
    <g id="xtick_5">
     <g id="line2d_5">
      <g>
       <use style="stroke:#000000;stroke-width:0.8;" x="625.418182" xlink:href="#m2a6ce578ae" y="504"/>
      </g>
     </g>
     <g id="text_5">
      <!-- 0.8 -->
      <g transform="translate(617.466619 518.598438)scale(0.1 -0.1)">
       <defs>
        <path d="M 31.78125 34.625 
Q 24.75 34.625 20.71875 30.859375 
Q 16.703125 27.09375 16.703125 20.515625 
Q 16.703125 13.921875 20.71875 10.15625 
Q 24.75 6.390625 31.78125 6.390625 
Q 38.8125 6.390625 42.859375 10.171875 
Q 46.921875 13.96875 46.921875 20.515625 
Q 46.921875 27.09375 42.890625 30.859375 
Q 38.875 34.625 31.78125 34.625 
z
M 21.921875 38.8125 
Q 15.578125 40.375 12.03125 44.71875 
Q 8.5 49.078125 8.5 55.328125 
Q 8.5 64.0625 14.71875 69.140625 
Q 20.953125 74.21875 31.78125 74.21875 
Q 42.671875 74.21875 48.875 69.140625 
Q 55.078125 64.0625 55.078125 55.328125 
Q 55.078125 49.078125 51.53125 44.71875 
Q 48 40.375 41.703125 38.8125 
Q 48.828125 37.15625 52.796875 32.3125 
Q 56.78125 27.484375 56.78125 20.515625 
Q 56.78125 9.90625 50.3125 4.234375 
Q 43.84375 -1.421875 31.78125 -1.421875 
Q 19.734375 -1.421875 13.25 4.234375 
Q 6.78125 9.90625 6.78125 20.515625 
Q 6.78125 27.484375 10.78125 32.3125 
Q 14.796875 37.15625 21.921875 38.8125 
z
M 18.3125 54.390625 
Q 18.3125 48.734375 21.84375 45.5625 
Q 25.390625 42.390625 31.78125 42.390625 
Q 38.140625 42.390625 41.71875 45.5625 
Q 45.3125 48.734375 45.3125 54.390625 
Q 45.3125 60.0625 41.71875 63.234375 
Q 38.140625 66.40625 31.78125 66.40625 
Q 25.390625 66.40625 21.84375 63.234375 
Q 18.3125 60.0625 18.3125 54.390625 
z
" id="DejaVuSans-56"/>
       </defs>
       <use xlink:href="#DejaVuSans-48"/>
       <use x="63.623047" xlink:href="#DejaVuSans-46"/>
       <use x="95.410156" xlink:href="#DejaVuSans-56"/>
      </g>
     </g>
    </g>
    <g id="xtick_6">
     <g id="line2d_6">
      <g>
       <use style="stroke:#000000;stroke-width:0.8;" x="747.163636" xlink:href="#m2a6ce578ae" y="504"/>
      </g>
     </g>
     <g id="text_6">
      <!-- 1.0 -->
      <g transform="translate(739.212074 518.598438)scale(0.1 -0.1)">
       <defs>
        <path d="M 12.40625 8.296875 
L 28.515625 8.296875 
L 28.515625 63.921875 
L 10.984375 60.40625 
L 10.984375 69.390625 
L 28.421875 72.90625 
L 38.28125 72.90625 
L 38.28125 8.296875 
L 54.390625 8.296875 
L 54.390625 0 
L 12.40625 0 
z
" id="DejaVuSans-49"/>
       </defs>
       <use xlink:href="#DejaVuSans-49"/>
       <use x="63.623047" xlink:href="#DejaVuSans-46"/>
       <use x="95.410156" xlink:href="#DejaVuSans-48"/>
      </g>
     </g>
    </g>
    <g id="text_7">
     <!-- False positive rate -->
     <g transform="translate(397.299219 532.276562)scale(0.1 -0.1)">
      <defs>
       <path d="M 9.8125 72.90625 
L 51.703125 72.90625 
L 51.703125 64.59375 
L 19.671875 64.59375 
L 19.671875 43.109375 
L 48.578125 43.109375 
L 48.578125 34.8125 
L 19.671875 34.8125 
L 19.671875 0 
L 9.8125 0 
z
" id="DejaVuSans-70"/>
       <path d="M 34.28125 27.484375 
Q 23.390625 27.484375 19.1875 25 
Q 14.984375 22.515625 14.984375 16.5 
Q 14.984375 11.71875 18.140625 8.90625 
Q 21.296875 6.109375 26.703125 6.109375 
Q 34.1875 6.109375 38.703125 11.40625 
Q 43.21875 16.703125 43.21875 25.484375 
L 43.21875 27.484375 
z
M 52.203125 31.203125 
L 52.203125 0 
L 43.21875 0 
L 43.21875 8.296875 
Q 40.140625 3.328125 35.546875 0.953125 
Q 30.953125 -1.421875 24.3125 -1.421875 
Q 15.921875 -1.421875 10.953125 3.296875 
Q 6 8.015625 6 15.921875 
Q 6 25.140625 12.171875 29.828125 
Q 18.359375 34.515625 30.609375 34.515625 
L 43.21875 34.515625 
L 43.21875 35.40625 
Q 43.21875 41.609375 39.140625 45 
Q 35.0625 48.390625 27.6875 48.390625 
Q 23 48.390625 18.546875 47.265625 
Q 14.109375 46.140625 10.015625 43.890625 
L 10.015625 52.203125 
Q 14.9375 54.109375 19.578125 55.046875 
Q 24.21875 56 28.609375 56 
Q 40.484375 56 46.34375 49.84375 
Q 52.203125 43.703125 52.203125 31.203125 
z
" id="DejaVuSans-97"/>
       <path d="M 9.421875 75.984375 
L 18.40625 75.984375 
L 18.40625 0 
L 9.421875 0 
z
" id="DejaVuSans-108"/>
       <path d="M 44.28125 53.078125 
L 44.28125 44.578125 
Q 40.484375 46.53125 36.375 47.5 
Q 32.28125 48.484375 27.875 48.484375 
Q 21.1875 48.484375 17.84375 46.4375 
Q 14.5 44.390625 14.5 40.28125 
Q 14.5 37.15625 16.890625 35.375 
Q 19.28125 33.59375 26.515625 31.984375 
L 29.59375 31.296875 
Q 39.15625 29.25 43.1875 25.515625 
Q 47.21875 21.78125 47.21875 15.09375 
Q 47.21875 7.46875 41.1875 3.015625 
Q 35.15625 -1.421875 24.609375 -1.421875 
Q 20.21875 -1.421875 15.453125 -0.5625 
Q 10.6875 0.296875 5.421875 2 
L 5.421875 11.28125 
Q 10.40625 8.6875 15.234375 7.390625 
Q 20.0625 6.109375 24.8125 6.109375 
Q 31.15625 6.109375 34.5625 8.28125 
Q 37.984375 10.453125 37.984375 14.40625 
Q 37.984375 18.0625 35.515625 20.015625 
Q 33.0625 21.96875 24.703125 23.78125 
L 21.578125 24.515625 
Q 13.234375 26.265625 9.515625 29.90625 
Q 5.8125 33.546875 5.8125 39.890625 
Q 5.8125 47.609375 11.28125 51.796875 
Q 16.75 56 26.8125 56 
Q 31.78125 56 36.171875 55.265625 
Q 40.578125 54.546875 44.28125 53.078125 
z
" id="DejaVuSans-115"/>
       <path d="M 56.203125 29.59375 
L 56.203125 25.203125 
L 14.890625 25.203125 
Q 15.484375 15.921875 20.484375 11.0625 
Q 25.484375 6.203125 34.421875 6.203125 
Q 39.59375 6.203125 44.453125 7.46875 
Q 49.3125 8.734375 54.109375 11.28125 
L 54.109375 2.78125 
Q 49.265625 0.734375 44.1875 -0.34375 
Q 39.109375 -1.421875 33.890625 -1.421875 
Q 20.796875 -1.421875 13.15625 6.1875 
Q 5.515625 13.8125 5.515625 26.8125 
Q 5.515625 40.234375 12.765625 48.109375 
Q 20.015625 56 32.328125 56 
Q 43.359375 56 49.78125 48.890625 
Q 56.203125 41.796875 56.203125 29.59375 
z
M 47.21875 32.234375 
Q 47.125 39.59375 43.09375 43.984375 
Q 39.0625 48.390625 32.421875 48.390625 
Q 24.90625 48.390625 20.390625 44.140625 
Q 15.875 39.890625 15.1875 32.171875 
z
" id="DejaVuSans-101"/>
       <path id="DejaVuSans-32"/>
       <path d="M 18.109375 8.203125 
L 18.109375 -20.796875 
L 9.078125 -20.796875 
L 9.078125 54.6875 
L 18.109375 54.6875 
L 18.109375 46.390625 
Q 20.953125 51.265625 25.265625 53.625 
Q 29.59375 56 35.59375 56 
Q 45.5625 56 51.78125 48.09375 
Q 58.015625 40.1875 58.015625 27.296875 
Q 58.015625 14.40625 51.78125 6.484375 
Q 45.5625 -1.421875 35.59375 -1.421875 
Q 29.59375 -1.421875 25.265625 0.953125 
Q 20.953125 3.328125 18.109375 8.203125 
z
M 48.6875 27.296875 
Q 48.6875 37.203125 44.609375 42.84375 
Q 40.53125 48.484375 33.40625 48.484375 
Q 26.265625 48.484375 22.1875 42.84375 
Q 18.109375 37.203125 18.109375 27.296875 
Q 18.109375 17.390625 22.1875 11.75 
Q 26.265625 6.109375 33.40625 6.109375 
Q 40.53125 6.109375 44.609375 11.75 
Q 48.6875 17.390625 48.6875 27.296875 
z
" id="DejaVuSans-112"/>
       <path d="M 30.609375 48.390625 
Q 23.390625 48.390625 19.1875 42.75 
Q 14.984375 37.109375 14.984375 27.296875 
Q 14.984375 17.484375 19.15625 11.84375 
Q 23.34375 6.203125 30.609375 6.203125 
Q 37.796875 6.203125 41.984375 11.859375 
Q 46.1875 17.53125 46.1875 27.296875 
Q 46.1875 37.015625 41.984375 42.703125 
Q 37.796875 48.390625 30.609375 48.390625 
z
M 30.609375 56 
Q 42.328125 56 49.015625 48.375 
Q 55.71875 40.765625 55.71875 27.296875 
Q 55.71875 13.875 49.015625 6.21875 
Q 42.328125 -1.421875 30.609375 -1.421875 
Q 18.84375 -1.421875 12.171875 6.21875 
Q 5.515625 13.875 5.515625 27.296875 
Q 5.515625 40.765625 12.171875 48.375 
Q 18.84375 56 30.609375 56 
z
" id="DejaVuSans-111"/>
       <path d="M 9.421875 54.6875 
L 18.40625 54.6875 
L 18.40625 0 
L 9.421875 0 
z
M 9.421875 75.984375 
L 18.40625 75.984375 
L 18.40625 64.59375 
L 9.421875 64.59375 
z
" id="DejaVuSans-105"/>
       <path d="M 18.3125 70.21875 
L 18.3125 54.6875 
L 36.8125 54.6875 
L 36.8125 47.703125 
L 18.3125 47.703125 
L 18.3125 18.015625 
Q 18.3125 11.328125 20.140625 9.421875 
Q 21.96875 7.515625 27.59375 7.515625 
L 36.8125 7.515625 
L 36.8125 0 
L 27.59375 0 
Q 17.1875 0 13.234375 3.875 
Q 9.28125 7.765625 9.28125 18.015625 
L 9.28125 47.703125 
L 2.6875 47.703125 
L 2.6875 54.6875 
L 9.28125 54.6875 
L 9.28125 70.21875 
z
" id="DejaVuSans-116"/>
       <path d="M 2.984375 54.6875 
L 12.5 54.6875 
L 29.59375 8.796875 
L 46.6875 54.6875 
L 56.203125 54.6875 
L 35.6875 0 
L 23.484375 0 
z
" id="DejaVuSans-118"/>
       <path d="M 41.109375 46.296875 
Q 39.59375 47.171875 37.8125 47.578125 
Q 36.03125 48 33.890625 48 
Q 26.265625 48 22.1875 43.046875 
Q 18.109375 38.09375 18.109375 28.8125 
L 18.109375 0 
L 9.078125 0 
L 9.078125 54.6875 
L 18.109375 54.6875 
L 18.109375 46.1875 
Q 20.953125 51.171875 25.484375 53.578125 
Q 30.03125 56 36.53125 56 
Q 37.453125 56 38.578125 55.875 
Q 39.703125 55.765625 41.0625 55.515625 
z
" id="DejaVuSans-114"/>
      </defs>
      <use xlink:href="#DejaVuSans-70"/>
      <use x="48.394531" xlink:href="#DejaVuSans-97"/>
      <use x="109.673828" xlink:href="#DejaVuSans-108"/>
      <use x="137.457031" xlink:href="#DejaVuSans-115"/>
      <use x="189.556641" xlink:href="#DejaVuSans-101"/>
      <use x="251.080078" xlink:href="#DejaVuSans-32"/>
      <use x="282.867188" xlink:href="#DejaVuSans-112"/>
      <use x="346.34375" xlink:href="#DejaVuSans-111"/>
      <use x="407.525391" xlink:href="#DejaVuSans-115"/>
      <use x="459.625" xlink:href="#DejaVuSans-105"/>
      <use x="487.408203" xlink:href="#DejaVuSans-116"/>
      <use x="526.617188" xlink:href="#DejaVuSans-105"/>
      <use x="554.400391" xlink:href="#DejaVuSans-118"/>
      <use x="613.580078" xlink:href="#DejaVuSans-101"/>
      <use x="675.103516" xlink:href="#DejaVuSans-32"/>
      <use x="706.890625" xlink:href="#DejaVuSans-114"/>
      <use x="748.003906" xlink:href="#DejaVuSans-97"/>
      <use x="809.283203" xlink:href="#DejaVuSans-116"/>
      <use x="848.492188" xlink:href="#DejaVuSans-101"/>
     </g>
    </g>
   </g>
   <g id="matplotlib.axis_2">
    <g id="ytick_1">
     <g id="line2d_7">
      <defs>
       <path d="M 0 0 
L -3.5 0 
" id="m8b00ad4e4c" style="stroke:#000000;stroke-width:0.8;"/>
      </defs>
      <g>
       <use style="stroke:#000000;stroke-width:0.8;" x="108" xlink:href="#m8b00ad4e4c" y="484.232727"/>
      </g>
     </g>
     <g id="text_8">
      <!-- 0.0 -->
      <g transform="translate(85.096875 488.031946)scale(0.1 -0.1)">
       <use xlink:href="#DejaVuSans-48"/>
       <use x="63.623047" xlink:href="#DejaVuSans-46"/>
       <use x="95.410156" xlink:href="#DejaVuSans-48"/>
      </g>
     </g>
    </g>
    <g id="ytick_2">
     <g id="line2d_8">
      <g>
       <use style="stroke:#000000;stroke-width:0.8;" x="108" xlink:href="#m8b00ad4e4c" y="405.163636"/>
      </g>
     </g>
     <g id="text_9">
      <!-- 0.2 -->
      <g transform="translate(85.096875 408.962855)scale(0.1 -0.1)">
       <use xlink:href="#DejaVuSans-48"/>
       <use x="63.623047" xlink:href="#DejaVuSans-46"/>
       <use x="95.410156" xlink:href="#DejaVuSans-50"/>
      </g>
     </g>
    </g>
    <g id="ytick_3">
     <g id="line2d_9">
      <g>
       <use style="stroke:#000000;stroke-width:0.8;" x="108" xlink:href="#m8b00ad4e4c" y="326.094545"/>
      </g>
     </g>
     <g id="text_10">
      <!-- 0.4 -->
      <g transform="translate(85.096875 329.893764)scale(0.1 -0.1)">
       <use xlink:href="#DejaVuSans-48"/>
       <use x="63.623047" xlink:href="#DejaVuSans-46"/>
       <use x="95.410156" xlink:href="#DejaVuSans-52"/>
      </g>
     </g>
    </g>
    <g id="ytick_4">
     <g id="line2d_10">
      <g>
       <use style="stroke:#000000;stroke-width:0.8;" x="108" xlink:href="#m8b00ad4e4c" y="247.025455"/>
      </g>
     </g>
     <g id="text_11">
      <!-- 0.6 -->
      <g transform="translate(85.096875 250.824673)scale(0.1 -0.1)">
       <use xlink:href="#DejaVuSans-48"/>
       <use x="63.623047" xlink:href="#DejaVuSans-46"/>
       <use x="95.410156" xlink:href="#DejaVuSans-54"/>
      </g>
     </g>
    </g>
    <g id="ytick_5">
     <g id="line2d_11">
      <g>
       <use style="stroke:#000000;stroke-width:0.8;" x="108" xlink:href="#m8b00ad4e4c" y="167.956364"/>
      </g>
     </g>
     <g id="text_12">
      <!-- 0.8 -->
      <g transform="translate(85.096875 171.755582)scale(0.1 -0.1)">
       <use xlink:href="#DejaVuSans-48"/>
       <use x="63.623047" xlink:href="#DejaVuSans-46"/>
       <use x="95.410156" xlink:href="#DejaVuSans-56"/>
      </g>
     </g>
    </g>
    <g id="ytick_6">
     <g id="line2d_12">
      <g>
       <use style="stroke:#000000;stroke-width:0.8;" x="108" xlink:href="#m8b00ad4e4c" y="88.887273"/>
      </g>
     </g>
     <g id="text_13">
      <!-- 1.0 -->
      <g transform="translate(85.096875 92.686491)scale(0.1 -0.1)">
       <use xlink:href="#DejaVuSans-49"/>
       <use x="63.623047" xlink:href="#DejaVuSans-46"/>
       <use x="95.410156" xlink:href="#DejaVuSans-48"/>
      </g>
     </g>
    </g>
    <g id="text_14">
     <!-- True positive rate -->
     <g transform="translate(79.017187 330.124063)rotate(-90)scale(0.1 -0.1)">
      <defs>
       <path d="M -0.296875 72.90625 
L 61.375 72.90625 
L 61.375 64.59375 
L 35.5 64.59375 
L 35.5 0 
L 25.59375 0 
L 25.59375 64.59375 
L -0.296875 64.59375 
z
" id="DejaVuSans-84"/>
       <path d="M 8.5 21.578125 
L 8.5 54.6875 
L 17.484375 54.6875 
L 17.484375 21.921875 
Q 17.484375 14.15625 20.5 10.265625 
Q 23.53125 6.390625 29.59375 6.390625 
Q 36.859375 6.390625 41.078125 11.03125 
Q 45.3125 15.671875 45.3125 23.6875 
L 45.3125 54.6875 
L 54.296875 54.6875 
L 54.296875 0 
L 45.3125 0 
L 45.3125 8.40625 
Q 42.046875 3.421875 37.71875 1 
Q 33.40625 -1.421875 27.6875 -1.421875 
Q 18.265625 -1.421875 13.375 4.4375 
Q 8.5 10.296875 8.5 21.578125 
z
M 31.109375 56 
z
" id="DejaVuSans-117"/>
      </defs>
      <use xlink:href="#DejaVuSans-84"/>
      <use x="46.333984" xlink:href="#DejaVuSans-114"/>
      <use x="87.447266" xlink:href="#DejaVuSans-117"/>
      <use x="150.826172" xlink:href="#DejaVuSans-101"/>
      <use x="212.349609" xlink:href="#DejaVuSans-32"/>
      <use x="244.136719" xlink:href="#DejaVuSans-112"/>
      <use x="307.613281" xlink:href="#DejaVuSans-111"/>
      <use x="368.794922" xlink:href="#DejaVuSans-115"/>
      <use x="420.894531" xlink:href="#DejaVuSans-105"/>
      <use x="448.677734" xlink:href="#DejaVuSans-116"/>
      <use x="487.886719" xlink:href="#DejaVuSans-105"/>
      <use x="515.669922" xlink:href="#DejaVuSans-118"/>
      <use x="574.849609" xlink:href="#DejaVuSans-101"/>
      <use x="636.373047" xlink:href="#DejaVuSans-32"/>
      <use x="668.160156" xlink:href="#DejaVuSans-114"/>
      <use x="709.273438" xlink:href="#DejaVuSans-97"/>
      <use x="770.552734" xlink:href="#DejaVuSans-116"/>
      <use x="809.761719" xlink:href="#DejaVuSans-101"/>
     </g>
    </g>
   </g>
   <g id="line2d_13">
    <path clip-path="url(#p301fa2c347)" d="M 138.436364 484.232727 
L 138.436364 476.214801 
L 138.826323 476.214801 
L 138.826323 474.981274 
L 139.216283 474.981274 
L 139.216283 469.430401 
L 139.606243 469.430401 
L 139.606243 466.346583 
L 139.996203 466.346583 
L 139.996203 463.879529 
L 140.386163 463.879529 
L 140.386163 449.693967 
L 140.776123 449.693967 
L 140.776123 442.909567 
L 141.166082 442.909567 
L 141.166082 435.508404 
L 141.556042 435.508404 
L 141.556042 425.640187 
L 141.946002 425.640187 
L 141.946002 425.023424 
L 142.335962 425.023424 
L 142.335962 415.77197 
L 142.725922 415.77197 
L 142.725922 409.604334 
L 143.115881 409.604334 
L 143.115881 402.819935 
L 143.505841 402.819935 
L 143.505841 400.969644 
L 143.895801 400.969644 
L 143.895801 394.185245 
L 144.285761 394.185245 
L 144.285761 393.568481 
L 145.065681 393.568481 
L 145.065681 372.598519 
L 145.45564 372.598519 
L 145.45564 363.347066 
L 145.8456 363.347066 
L 145.8456 356.562666 
L 146.62552 356.562666 
L 146.62552 349.161503 
L 147.01548 349.161503 
L 147.01548 346.077685 
L 147.405439 346.077685 
L 147.405439 341.76034 
L 147.795399 341.76034 
L 147.795399 340.526813 
L 148.185359 340.526813 
L 148.185359 334.359177 
L 148.575319 334.359177 
L 148.575319 332.508887 
L 148.965279 332.508887 
L 148.965279 329.425069 
L 149.355238 329.425069 
L 149.355238 322.640669 
L 149.745198 322.640669 
L 149.745198 318.323324 
L 150.135158 318.323324 
L 150.135158 317.706561 
L 150.525118 317.706561 
L 150.525118 317.089797 
L 150.915078 317.089797 
L 150.915078 315.239506 
L 151.694997 315.239506 
L 151.694997 312.155689 
L 152.084957 312.155689 
L 152.084957 309.071871 
L 152.474917 309.071871 
L 152.474917 308.455107 
L 153.254837 308.455107 
L 153.254837 293.652781 
L 153.644796 293.652781 
L 153.644796 293.036018 
L 154.034756 293.036018 
L 154.034756 291.80249 
L 154.424716 291.80249 
L 154.424716 286.868382 
L 154.814676 286.868382 
L 154.814676 281.934273 
L 155.204636 281.934273 
L 155.204636 278.233692 
L 155.594596 278.233692 
L 155.594596 275.766637 
L 155.984555 275.766637 
L 155.984555 272.066056 
L 156.764475 272.066056 
L 156.764475 268.982238 
L 157.544395 268.982238 
L 157.544395 268.365474 
L 158.714274 268.365474 
L 158.714274 267.748711 
L 159.494194 267.748711 
L 159.494194 265.89842 
L 159.884154 265.89842 
L 159.884154 265.281657 
L 160.664073 265.281657 
L 160.664073 264.048129 
L 161.054033 264.048129 
L 161.054033 263.431366 
L 162.223912 263.431366 
L 162.223912 261.581075 
L 163.003832 261.581075 
L 163.003832 259.114021 
L 163.393792 259.114021 
L 163.393792 258.497257 
L 163.783752 258.497257 
L 163.783752 256.030203 
L 164.173711 256.030203 
L 164.173711 254.179912 
L 164.563671 254.179912 
L 164.563671 251.712858 
L 164.953631 251.712858 
L 164.953631 251.096094 
L 165.343591 251.096094 
L 165.343591 250.479331 
L 166.123511 250.479331 
L 166.123511 248.012276 
L 166.90343 248.012276 
L 166.90343 243.694931 
L 168.07331 243.694931 
L 168.07331 243.078168 
L 168.853229 243.078168 
L 168.853229 242.461404 
L 169.243189 242.461404 
L 169.243189 241.84464 
L 169.633149 241.84464 
L 169.633149 241.227877 
L 171.192988 241.227877 
L 171.192988 240.611113 
L 172.752827 240.611113 
L 172.752827 238.760823 
L 173.532747 238.760823 
L 173.532747 235.060241 
L 173.922707 235.060241 
L 173.922707 234.443478 
L 174.702627 234.443478 
L 174.702627 233.826714 
L 175.092586 233.826714 
L 175.092586 232.593187 
L 177.432345 232.593187 
L 177.432345 231.976423 
L 178.212265 231.976423 
L 178.212265 231.35966 
L 178.602225 231.35966 
L 178.602225 230.742896 
L 178.992184 230.742896 
L 178.992184 230.126132 
L 180.162064 230.126132 
L 180.162064 229.509369 
L 180.552024 229.509369 
L 180.552024 228.892605 
L 180.941984 228.892605 
L 180.941984 227.042315 
L 181.331943 227.042315 
L 181.331943 225.808787 
L 181.721903 225.808787 
L 181.721903 222.108206 
L 182.891783 222.108206 
L 182.891783 221.491442 
L 183.281742 221.491442 
L 183.281742 220.874679 
L 184.451622 220.874679 
L 184.451622 219.641152 
L 184.841582 219.641152 
L 184.841582 217.790861 
L 185.231542 217.790861 
L 185.231542 215.94057 
L 187.5713 215.94057 
L 187.5713 215.323807 
L 189.5211 215.323807 
L 189.5211 213.473516 
L 190.301019 213.473516 
L 190.301019 209.772934 
L 191.080939 209.772934 
L 191.080939 208.539407 
L 191.470899 208.539407 
L 191.470899 207.30588 
L 191.860858 207.30588 
L 191.860858 206.689116 
L 192.640778 206.689116 
L 192.640778 204.838826 
L 193.420698 204.838826 
L 193.420698 204.222062 
L 195.370497 204.222062 
L 195.370497 201.138244 
L 195.760457 201.138244 
L 195.760457 199.287953 
L 196.150416 199.287953 
L 196.150416 198.67119 
L 196.540376 198.67119 
L 196.540376 198.054426 
L 196.930336 198.054426 
L 196.930336 197.437663 
L 198.100215 197.437663 
L 198.100215 196.820899 
L 198.490175 196.820899 
L 198.490175 193.120318 
L 199.270095 193.120318 
L 199.270095 191.886791 
L 199.660055 191.886791 
L 199.660055 191.270027 
L 200.050015 191.270027 
L 200.050015 190.653263 
L 200.439974 190.653263 
L 200.439974 186.952682 
L 201.609854 186.952682 
L 201.609854 185.719155 
L 201.999814 185.719155 
L 201.999814 182.635337 
L 202.389773 182.635337 
L 202.389773 181.40181 
L 205.899412 181.40181 
L 205.899412 180.168283 
L 206.679331 180.168283 
L 206.679331 179.551519 
L 207.069291 179.551519 
L 207.069291 178.934755 
L 207.459251 178.934755 
L 207.459251 178.317992 
L 208.239171 178.317992 
L 208.239171 177.084465 
L 209.79901 177.084465 
L 209.79901 175.850937 
L 210.18897 175.850937 
L 210.18897 175.234174 
L 210.968889 175.234174 
L 210.968889 174.61741 
L 212.528729 174.61741 
L 212.528729 174.000647 
L 213.308648 174.000647 
L 213.308648 173.383883 
L 214.088568 173.383883 
L 214.088568 172.150356 
L 214.478528 172.150356 
L 214.478528 171.533592 
L 215.648407 171.533592 
L 215.648407 170.300065 
L 216.818287 170.300065 
L 216.818287 169.683302 
L 217.208246 169.683302 
L 217.208246 169.066538 
L 217.598206 169.066538 
L 217.598206 168.449775 
L 218.378126 168.449775 
L 218.378126 167.833011 
L 218.768086 167.833011 
L 218.768086 167.216247 
L 219.548005 167.216247 
L 219.548005 166.599484 
L 219.937965 166.599484 
L 219.937965 165.365957 
L 220.717885 165.365957 
L 220.717885 164.749193 
L 221.107845 164.749193 
L 221.107845 164.132429 
L 221.887764 164.132429 
L 221.887764 162.898902 
L 222.667684 162.898902 
L 222.667684 161.665375 
L 223.447604 161.665375 
L 223.447604 159.815084 
L 224.227523 159.815084 
L 224.227523 158.581557 
L 225.007443 158.581557 
L 225.007443 157.964794 
L 225.787362 157.964794 
L 225.787362 156.114503 
L 226.957242 156.114503 
L 226.957242 155.497739 
L 227.347202 155.497739 
L 227.347202 154.880976 
L 228.907041 154.880976 
L 228.907041 153.030685 
L 229.686961 153.030685 
L 229.686961 152.413921 
L 233.586559 152.413921 
L 233.586559 151.797158 
L 233.976519 151.797158 
L 233.976519 151.180394 
L 234.366478 151.180394 
L 234.366478 149.946867 
L 237.486157 149.946867 
L 237.486157 149.330104 
L 238.656036 149.330104 
L 238.656036 148.71334 
L 240.605835 148.71334 
L 240.605835 148.096576 
L 240.995795 148.096576 
L 240.995795 146.246286 
L 241.775715 146.246286 
L 241.775715 145.012758 
L 244.505434 145.012758 
L 244.505434 144.395995 
L 247.625112 144.395995 
L 247.625112 143.779231 
L 248.015072 143.779231 
L 248.015072 142.545704 
L 249.574911 142.545704 
L 249.574911 141.928941 
L 250.744791 141.928941 
L 250.744791 141.312177 
L 251.13475 141.312177 
L 251.13475 140.695413 
L 251.52471 140.695413 
L 251.52471 139.461886 
L 258.154027 139.461886 
L 258.154027 138.845123 
L 262.053625 138.845123 
L 262.053625 137.611596 
L 263.223505 137.611596 
L 263.223505 136.994832 
L 267.903023 136.994832 
L 267.903023 136.378068 
L 269.072902 136.378068 
L 269.072902 135.761305 
L 270.242781 135.761305 
L 270.242781 134.527778 
L 270.632741 134.527778 
L 270.632741 133.911014 
L 271.022701 133.911014 
L 271.022701 133.29425 
L 274.922299 133.29425 
L 274.922299 132.677487 
L 275.312259 132.677487 
L 275.312259 132.060723 
L 279.211857 132.060723 
L 279.211857 130.210433 
L 279.601817 130.210433 
L 279.601817 128.976905 
L 279.991777 128.976905 
L 279.991777 128.360142 
L 280.381737 128.360142 
L 280.381737 127.743378 
L 283.111455 127.743378 
L 283.111455 127.126615 
L 283.891375 127.126615 
L 283.891375 125.893088 
L 285.061254 125.893088 
L 285.061254 125.276324 
L 301.049607 125.276324 
L 301.049607 124.65956 
L 305.339165 124.65956 
L 305.339165 124.042797 
L 310.018683 124.042797 
L 310.018683 123.426033 
L 311.578522 123.426033 
L 311.578522 122.192506 
L 313.918281 122.192506 
L 313.918281 120.958979 
L 314.308241 120.958979 
L 314.308241 120.342215 
L 317.427919 120.342215 
L 317.427919 119.725452 
L 319.377718 119.725452 
L 319.377718 119.108688 
L 320.937558 119.108688 
L 320.937558 118.491925 
L 321.327517 118.491925 
L 321.327517 117.875161 
L 324.057236 117.875161 
L 324.057236 116.02487 
L 330.296593 116.02487 
L 330.296593 115.408107 
L 336.14599 115.408107 
L 336.14599 114.791343 
L 354.474102 114.791343 
L 354.474102 114.174579 
L 359.543579 114.174579 
L 359.543579 112.941052 
L 361.493378 112.941052 
L 361.493378 112.324289 
L 363.833137 112.324289 
L 363.833137 111.707525 
L 397.759641 111.707525 
L 397.759641 111.090762 
L 398.539561 111.090762 
L 398.539561 110.473998 
L 425.836748 110.473998 
L 425.836748 109.857234 
L 430.126306 109.857234 
L 430.126306 109.240471 
L 439.095382 109.240471 
L 439.095382 108.006944 
L 455.083734 108.006944 
L 455.083734 107.39018 
L 463.27289 107.39018 
L 463.27289 106.773417 
L 473.021886 106.773417 
L 473.021886 106.156653 
L 488.620278 106.156653 
L 488.620278 105.539889 
L 490.570077 105.539889 
L 490.570077 104.923126 
L 495.639555 104.923126 
L 495.639555 104.306362 
L 498.759234 104.306362 
L 498.759234 103.072835 
L 500.709033 103.072835 
L 500.709033 102.456071 
L 503.048792 102.456071 
L 503.048792 101.839308 
L 510.068068 101.839308 
L 510.068068 101.222544 
L 514.357626 101.222544 
L 514.357626 100.605781 
L 525.666461 100.605781 
L 525.666461 99.989017 
L 537.365255 99.989017 
L 537.365255 99.372254 
L 552.183728 99.372254 
L 552.183728 98.75549 
L 552.573688 98.75549 
L 552.573688 98.138726 
L 552.963648 98.138726 
L 552.963648 97.521963 
L 563.882523 97.521963 
L 563.882523 96.288436 
L 648.893763 96.288436 
L 648.893763 95.671672 
L 651.233522 95.671672 
L 651.233522 95.054909 
L 653.573281 95.054909 
L 653.573281 94.438145 
L 678.530709 94.438145 
L 678.530709 93.821381 
L 689.449584 93.821381 
L 689.449584 93.204618 
L 695.298981 93.204618 
L 695.298981 92.587854 
L 697.24878 92.587854 
L 697.24878 91.971091 
L 706.607816 91.971091 
L 706.607816 91.354327 
L 716.746771 91.354327 
L 716.746771 90.737563 
L 729.225485 90.737563 
L 729.225485 90.1208 
L 734.294962 90.1208 
L 734.294962 89.504036 
L 746.383717 89.504036 
L 746.383717 88.887273 
L 747.163636 88.887273 
L 747.163636 88.887273 
" style="fill:none;stroke:#000080;stroke-linecap:square;stroke-width:2;"/>
   </g>
   <g id="line2d_14">
    <path clip-path="url(#p301fa2c347)" d="M 138.436364 484.232727 
L 747.163636 88.887273 
" style="fill:none;stroke:#800080;stroke-dasharray:5.55,2.4;stroke-dashoffset:0;stroke-width:1.5;"/>
   </g>
   <g id="patch_3">
    <path d="M 108 504 
L 108 69.12 
" style="fill:none;stroke:#000000;stroke-linecap:square;stroke-linejoin:miter;stroke-width:0.8;"/>
   </g>
   <g id="patch_4">
    <path d="M 777.6 504 
L 777.6 69.12 
" style="fill:none;stroke:#000000;stroke-linecap:square;stroke-linejoin:miter;stroke-width:0.8;"/>
   </g>
   <g id="patch_5">
    <path d="M 108 504 
L 777.6 504 
" style="fill:none;stroke:#000000;stroke-linecap:square;stroke-linejoin:miter;stroke-width:0.8;"/>
   </g>
   <g id="patch_6">
    <path d="M 108 69.12 
L 777.6 69.12 
" style="fill:none;stroke:#000000;stroke-linecap:square;stroke-linejoin:miter;stroke-width:0.8;"/>
   </g>
   <g id="text_15">
    <!-- ROC curve for fraud problem -->
    <g transform="translate(356.338125 63.12)scale(0.12 -0.12)">
     <defs>
      <path d="M 44.390625 34.1875 
Q 47.5625 33.109375 50.5625 29.59375 
Q 53.5625 26.078125 56.59375 19.921875 
L 66.609375 0 
L 56 0 
L 46.6875 18.703125 
Q 43.0625 26.03125 39.671875 28.421875 
Q 36.28125 30.8125 30.421875 30.8125 
L 19.671875 30.8125 
L 19.671875 0 
L 9.8125 0 
L 9.8125 72.90625 
L 32.078125 72.90625 
Q 44.578125 72.90625 50.734375 67.671875 
Q 56.890625 62.453125 56.890625 51.90625 
Q 56.890625 45.015625 53.6875 40.46875 
Q 50.484375 35.9375 44.390625 34.1875 
z
M 19.671875 64.796875 
L 19.671875 38.921875 
L 32.078125 38.921875 
Q 39.203125 38.921875 42.84375 42.21875 
Q 46.484375 45.515625 46.484375 51.90625 
Q 46.484375 58.296875 42.84375 61.546875 
Q 39.203125 64.796875 32.078125 64.796875 
z
" id="DejaVuSans-82"/>
      <path d="M 39.40625 66.21875 
Q 28.65625 66.21875 22.328125 58.203125 
Q 16.015625 50.203125 16.015625 36.375 
Q 16.015625 22.609375 22.328125 14.59375 
Q 28.65625 6.59375 39.40625 6.59375 
Q 50.140625 6.59375 56.421875 14.59375 
Q 62.703125 22.609375 62.703125 36.375 
Q 62.703125 50.203125 56.421875 58.203125 
Q 50.140625 66.21875 39.40625 66.21875 
z
M 39.40625 74.21875 
Q 54.734375 74.21875 63.90625 63.9375 
Q 73.09375 53.65625 73.09375 36.375 
Q 73.09375 19.140625 63.90625 8.859375 
Q 54.734375 -1.421875 39.40625 -1.421875 
Q 24.03125 -1.421875 14.8125 8.828125 
Q 5.609375 19.09375 5.609375 36.375 
Q 5.609375 53.65625 14.8125 63.9375 
Q 24.03125 74.21875 39.40625 74.21875 
z
" id="DejaVuSans-79"/>
      <path d="M 64.40625 67.28125 
L 64.40625 56.890625 
Q 59.421875 61.53125 53.78125 63.8125 
Q 48.140625 66.109375 41.796875 66.109375 
Q 29.296875 66.109375 22.65625 58.46875 
Q 16.015625 50.828125 16.015625 36.375 
Q 16.015625 21.96875 22.65625 14.328125 
Q 29.296875 6.6875 41.796875 6.6875 
Q 48.140625 6.6875 53.78125 8.984375 
Q 59.421875 11.28125 64.40625 15.921875 
L 64.40625 5.609375 
Q 59.234375 2.09375 53.4375 0.328125 
Q 47.65625 -1.421875 41.21875 -1.421875 
Q 24.65625 -1.421875 15.125 8.703125 
Q 5.609375 18.84375 5.609375 36.375 
Q 5.609375 53.953125 15.125 64.078125 
Q 24.65625 74.21875 41.21875 74.21875 
Q 47.75 74.21875 53.53125 72.484375 
Q 59.328125 70.75 64.40625 67.28125 
z
" id="DejaVuSans-67"/>
      <path d="M 48.78125 52.59375 
L 48.78125 44.1875 
Q 44.96875 46.296875 41.140625 47.34375 
Q 37.3125 48.390625 33.40625 48.390625 
Q 24.65625 48.390625 19.8125 42.84375 
Q 14.984375 37.3125 14.984375 27.296875 
Q 14.984375 17.28125 19.8125 11.734375 
Q 24.65625 6.203125 33.40625 6.203125 
Q 37.3125 6.203125 41.140625 7.25 
Q 44.96875 8.296875 48.78125 10.40625 
L 48.78125 2.09375 
Q 45.015625 0.34375 40.984375 -0.53125 
Q 36.96875 -1.421875 32.421875 -1.421875 
Q 20.0625 -1.421875 12.78125 6.34375 
Q 5.515625 14.109375 5.515625 27.296875 
Q 5.515625 40.671875 12.859375 48.328125 
Q 20.21875 56 33.015625 56 
Q 37.15625 56 41.109375 55.140625 
Q 45.0625 54.296875 48.78125 52.59375 
z
" id="DejaVuSans-99"/>
      <path d="M 37.109375 75.984375 
L 37.109375 68.5 
L 28.515625 68.5 
Q 23.6875 68.5 21.796875 66.546875 
Q 19.921875 64.59375 19.921875 59.515625 
L 19.921875 54.6875 
L 34.71875 54.6875 
L 34.71875 47.703125 
L 19.921875 47.703125 
L 19.921875 0 
L 10.890625 0 
L 10.890625 47.703125 
L 2.296875 47.703125 
L 2.296875 54.6875 
L 10.890625 54.6875 
L 10.890625 58.5 
Q 10.890625 67.625 15.140625 71.796875 
Q 19.390625 75.984375 28.609375 75.984375 
z
" id="DejaVuSans-102"/>
      <path d="M 45.40625 46.390625 
L 45.40625 75.984375 
L 54.390625 75.984375 
L 54.390625 0 
L 45.40625 0 
L 45.40625 8.203125 
Q 42.578125 3.328125 38.25 0.953125 
Q 33.9375 -1.421875 27.875 -1.421875 
Q 17.96875 -1.421875 11.734375 6.484375 
Q 5.515625 14.40625 5.515625 27.296875 
Q 5.515625 40.1875 11.734375 48.09375 
Q 17.96875 56 27.875 56 
Q 33.9375 56 38.25 53.625 
Q 42.578125 51.265625 45.40625 46.390625 
z
M 14.796875 27.296875 
Q 14.796875 17.390625 18.875 11.75 
Q 22.953125 6.109375 30.078125 6.109375 
Q 37.203125 6.109375 41.296875 11.75 
Q 45.40625 17.390625 45.40625 27.296875 
Q 45.40625 37.203125 41.296875 42.84375 
Q 37.203125 48.484375 30.078125 48.484375 
Q 22.953125 48.484375 18.875 42.84375 
Q 14.796875 37.203125 14.796875 27.296875 
z
" id="DejaVuSans-100"/>
      <path d="M 48.6875 27.296875 
Q 48.6875 37.203125 44.609375 42.84375 
Q 40.53125 48.484375 33.40625 48.484375 
Q 26.265625 48.484375 22.1875 42.84375 
Q 18.109375 37.203125 18.109375 27.296875 
Q 18.109375 17.390625 22.1875 11.75 
Q 26.265625 6.109375 33.40625 6.109375 
Q 40.53125 6.109375 44.609375 11.75 
Q 48.6875 17.390625 48.6875 27.296875 
z
M 18.109375 46.390625 
Q 20.953125 51.265625 25.265625 53.625 
Q 29.59375 56 35.59375 56 
Q 45.5625 56 51.78125 48.09375 
Q 58.015625 40.1875 58.015625 27.296875 
Q 58.015625 14.40625 51.78125 6.484375 
Q 45.5625 -1.421875 35.59375 -1.421875 
Q 29.59375 -1.421875 25.265625 0.953125 
Q 20.953125 3.328125 18.109375 8.203125 
L 18.109375 0 
L 9.078125 0 
L 9.078125 75.984375 
L 18.109375 75.984375 
z
" id="DejaVuSans-98"/>
      <path d="M 52 44.1875 
Q 55.375 50.25 60.0625 53.125 
Q 64.75 56 71.09375 56 
Q 79.640625 56 84.28125 50.015625 
Q 88.921875 44.046875 88.921875 33.015625 
L 88.921875 0 
L 79.890625 0 
L 79.890625 32.71875 
Q 79.890625 40.578125 77.09375 44.375 
Q 74.3125 48.1875 68.609375 48.1875 
Q 61.625 48.1875 57.5625 43.546875 
Q 53.515625 38.921875 53.515625 30.90625 
L 53.515625 0 
L 44.484375 0 
L 44.484375 32.71875 
Q 44.484375 40.625 41.703125 44.40625 
Q 38.921875 48.1875 33.109375 48.1875 
Q 26.21875 48.1875 22.15625 43.53125 
Q 18.109375 38.875 18.109375 30.90625 
L 18.109375 0 
L 9.078125 0 
L 9.078125 54.6875 
L 18.109375 54.6875 
L 18.109375 46.1875 
Q 21.1875 51.21875 25.484375 53.609375 
Q 29.78125 56 35.6875 56 
Q 41.65625 56 45.828125 52.96875 
Q 50 49.953125 52 44.1875 
z
" id="DejaVuSans-109"/>
     </defs>
     <use xlink:href="#DejaVuSans-82"/>
     <use x="69.482422" xlink:href="#DejaVuSans-79"/>
     <use x="148.193359" xlink:href="#DejaVuSans-67"/>
     <use x="218.017578" xlink:href="#DejaVuSans-32"/>
     <use x="249.804688" xlink:href="#DejaVuSans-99"/>
     <use x="304.785156" xlink:href="#DejaVuSans-117"/>
     <use x="368.164062" xlink:href="#DejaVuSans-114"/>
     <use x="409.277344" xlink:href="#DejaVuSans-118"/>
     <use x="468.457031" xlink:href="#DejaVuSans-101"/>
     <use x="529.980469" xlink:href="#DejaVuSans-32"/>
     <use x="561.767578" xlink:href="#DejaVuSans-102"/>
     <use x="596.972656" xlink:href="#DejaVuSans-111"/>
     <use x="658.154297" xlink:href="#DejaVuSans-114"/>
     <use x="699.267578" xlink:href="#DejaVuSans-32"/>
     <use x="731.054688" xlink:href="#DejaVuSans-102"/>
     <use x="766.259766" xlink:href="#DejaVuSans-114"/>
     <use x="807.373047" xlink:href="#DejaVuSans-97"/>
     <use x="868.652344" xlink:href="#DejaVuSans-117"/>
     <use x="932.03125" xlink:href="#DejaVuSans-100"/>
     <use x="995.507812" xlink:href="#DejaVuSans-32"/>
     <use x="1027.294922" xlink:href="#DejaVuSans-112"/>
     <use x="1090.771484" xlink:href="#DejaVuSans-114"/>
     <use x="1129.634766" xlink:href="#DejaVuSans-111"/>
     <use x="1190.816406" xlink:href="#DejaVuSans-98"/>
     <use x="1254.292969" xlink:href="#DejaVuSans-108"/>
     <use x="1282.076172" xlink:href="#DejaVuSans-101"/>
     <use x="1343.599609" xlink:href="#DejaVuSans-109"/>
    </g>
   </g>
  </g>
 </g>
 <defs>
  <clipPath id="p301fa2c347">
   <rect height="434.88" width="669.6" x="108" y="69.12"/>
  </clipPath>
 </defs>
</svg>
